<svg width="20" height="20" viewBox="0 0 20 20" fill="none" xmlns="http://www.w3.org/2000/svg">
<g clip-path="url(#clip0)">
<path d="M19.8988 7.57998C19.6558 6.83206 19.0093 6.28704 18.2311 6.17395L13.8235 5.53351L11.8527 1.53984C11.5048 0.834598 10.7865 0.388184 10.0002 0.388184H10.0001C9.21377 0.388184 8.49554 0.834653 8.14751 1.53979L6.17653 5.53351L1.76893 6.17395C0.990733 6.28704 0.344181 6.83212 0.101153 7.57998C-0.14182 8.32789 0.0608503 9.14887 0.623933 9.6978L3.81325 12.8067L3.06016 17.1963C2.9272 17.9713 3.24582 18.7547 3.88202 19.2169C4.51828 19.6792 5.36172 19.7401 6.05777 19.3742L10.0001 17.3016L13.9424 19.3742C14.2447 19.5331 14.5747 19.6115 14.9036 19.6115C15.3319 19.6115 15.7582 19.4784 16.1182 19.2169C16.7544 18.7547 17.073 17.9713 16.94 17.1963L16.1869 12.8066L19.3761 9.69769C19.9392 9.14882 20.1418 8.32784 19.8988 7.57998Z" fill="#FFCF10"/>
</g>
<defs>
<clipPath id="clip0">
<rect width="20" height="20" fill="white"/>
</clipPath>
</defs>
</svg>
