<svg width="50" height="50" viewBox="0 0 50 50" fill="none" xmlns="http://www.w3.org/2000/svg">
<g clip-path="url(#clip0)">
<path d="M49.747 18.9502C49.1395 17.0804 47.5232 15.7178 45.5777 15.4351L34.5588 13.834L29.6318 3.84985C28.7618 2.08674 26.9662 0.970703 25.0004 0.970703H25.0002C23.0344 0.970703 21.2388 2.08688 20.3687 3.84971L15.4413 13.834L4.42226 15.4351C2.47677 15.7178 0.860392 17.0805 0.252822 18.9502C-0.354611 20.82 0.152065 22.8724 1.55977 24.2448L9.53307 32.0169L7.65034 42.9909C7.31793 44.9286 8.11449 46.887 9.70499 48.0425C11.2956 49.1982 13.4042 49.3506 15.1444 48.4357L25.0002 43.2542L34.856 48.4357C35.6117 48.833 36.4367 49.0291 37.2589 49.0291C38.3298 49.0291 39.3954 48.6964 40.2954 48.0425C41.886 46.8869 42.6824 44.9286 42.3499 42.9909L40.4673 32.0168L48.4403 24.2445C49.8479 22.8723 50.3545 20.8198 49.747 18.9502Z" fill="#FF9900"/>
</g>
<defs>
<clipPath id="clip0">
<rect width="50" height="50" fill="white"/>
</clipPath>
</defs>
</svg>
