<svg width="101" height="75" viewBox="0 0 101 75" fill="none" xmlns="http://www.w3.org/2000/svg">
<path d="M0 37.5008C0 38.956 1.58844 40.1356 3.5482 40.1356H88.9939L66.6113 56.741C65.9305 57.2465 65.5799 57.9205 65.5799 58.5945C65.5799 59.2685 65.9305 59.9425 66.6113 60.4481C67.9935 61.4744 70.242 61.4744 71.6242 60.4481L100.01 39.3543C101.33 38.3739 101.33 36.6276 100.01 35.6319L71.6036 14.5535C70.2214 13.5271 67.9728 13.5271 66.5907 14.5535C65.2085 15.5798 65.2085 17.2495 66.5907 18.2759L88.9526 34.8813H3.52757C1.56781 34.866 0 36.0455 0 37.5008Z" fill="#FF9900"/>
</svg>
